# xmcd CD database file
# Copyright (C) 1993-1998 Ti Kan
#
# Track frame offsets:
#  183
#  18313
#  34535
#  53650
#  69933
#  88470
#  109390
#  127418
#  145460
#  162985
#
# Disc length: 2364 seconds
#
# Revision: 1
# Processed by: cddbd v1.4b41PL1 Copyright (c) Steve Scherf et al.
# Submitted via: CDWizzard Release:4.35
#
DISCID=90093a0a
DTITLE=Johnnie Taylor - In Control
DYEAR=1900
DGENRE=
TTITLE0=You Knocked My Heart Out Of Line
TTITLE1=It Don't Hurt Me Like It Use To
TTITLE2=In Control
TTITLE3=Got To Leave This Woman
TTITLE4=Let's Get Closer
TTITLE5=I Found A Love
TTITLE6=Now That You Cheated
TTITLE7=Love's Easy To Fall Into
TTITLE8=Everything's Out In The Open
TTITLE9=That's The Way It Is
EXTD=
EXTT0=
EXTT1=
EXTT2=
EXTT3=
EXTT4=
EXTT5=
EXTT6=
EXTT7=
EXTT8=
EXTT9=
PLAYORDER=
